<?xml version="1.0" standalone="no"?>
<!DOCTYPE svg PUBLIC "-//W3C//DTD SVG 20010904//EN"
 "http://www.w3.org/TR/2001/REC-SVG-20010904/DTD/svg10.dtd">
<svg version="1.0" xmlns="http://www.w3.org/2000/svg"
 width="800.000000pt" height="643.000000pt" viewBox="0 0 800.000000 643.000000"
 preserveAspectRatio="xMidYMid meet">

<g transform="translate(0.000000,643.000000) scale(0.100000,-0.100000)"
fill="#000000" stroke="none">
<path d="M1590 5965 l0 -465 75 0 75 0 0 110 0 110 457 0 c381 0 455 -2 443
-13 -8 -8 -47 -42 -87 -76 -113 -99 -316 -333 -410 -473 l-38 -57 -932 -1
c-615 0 -933 -3 -933 -10 0 -6 -43 -10 -110 -10 -106 0 -110 -1 -114 -22 -3
-13 -7 -560 -9 -1215 l-5 -1193 794 0 794 0 0 -1325 0 -1325 3205 0 3205 0 0
3215 0 3215 -1344 0 c-957 0 -1345 -3 -1348 -11 -3 -8 -26 -8 -82 0 -109 15
-643 13 -878 -4 -109 -7 -202 -16 -206 -19 -4 -2 -30 -7 -57 -10 -55 -7 -145
-25 -245 -51 -36 -9 -81 -20 -100 -25 -48 -12 -158 -49 -197 -66 -17 -8 -34
-14 -38 -14 -8 0 -30 -10 -178 -79 -203 -95 -375 -199 -564 -343 l-103 -78 0
350 0 350 -535 0 -535 0 0 -465z m5910 -242 l0 -608 -27 40 c-31 47 -126 167
-151 193 -10 9 -49 52 -87 96 -95 107 -346 329 -462 406 -12 8 -49 34 -82 58
-33 23 -63 42 -65 42 -2 0 -28 16 -58 35 -133 88 -481 243 -673 300 -49 15
-99 31 -110 35 -11 5 370 9 848 9 l867 1 0 -607z m-2727 577 c872 -63 1669
-525 2157 -1250 l61 -90 -519 0 c-389 0 -521 -3 -530 -12 -9 -9 -12 -77 -12
-245 l0 -233 -28 0 c-27 0 -31 6 -83 133 -29 72 -155 380 -280 682 -206 499
-229 550 -250 550 -21 0 -35 -38 -203 -542 -100 -298 -183 -544 -186 -547 -4
-4 -53 119 -108 272 -3 8 8 12 35 12 22 0 47 6 56 13 9 6 100 210 203 452 102
242 192 450 198 463 11 21 28 -11 196 -365 101 -213 203 -427 227 -476 l43
-87 533 2 c502 3 532 4 535 21 8 42 -285 351 -483 510 -492 396 -1048 621
-1655 672 -129 10 -179 10 -295 -1 -877 -85 -1491 -403 -2008 -1039 -64 -78
-97 -127 -95 -140 3 -20 12 -20 995 -25 l991 -5 -13 -32 -14 -33 -1050 0
-1049 0 -49 -36 c-26 -20 -62 -53 -80 -73 l-32 -36 -1 71 c0 56 -3 73 -16 78
-9 3 -127 6 -264 6 -193 0 -250 -3 -259 -13 -7 -9 -12 -87 -13 -214 l-3 -201
-110 190 c-60 105 -118 201 -128 214 l-18 24 -483 0 c-361 0 -485 -3 -494 -12
-9 -9 -12 -209 -12 -840 l0 -828 3610 0 c3603 0 3610 0 3610 -20 0 -20 -7 -20
-3670 -20 l-3670 0 0 890 0 890 1070 0 1069 0 42 61 c157 231 395 476 646 661
542 403 1210 597 1886 548z m-195 -117 c-15 -4 -18 -21 -21 -116 l-3 -112 -2
118 c-2 116 -2 117 21 116 16 -1 17 -3 5 -6z m-275 -20 c-7 -2 -21 -2 -30 0
-10 3 -4 5 12 5 17 0 24 -2 18 -5z m510 0 c-7 -2 -19 -2 -25 0 -7 3 -2 5 12 5
14 0 19 -2 13 -5z m-576 -9 c-3 -3 -12 -4 -19 -1 -8 3 -5 6 6 6 11 1 17 -2 13
-5z m630 0 c-3 -3 -12 -4 -19 -1 -8 3 -5 6 6 6 11 1 17 -2 13 -5z m-720 -10
c-3 -3 -12 -4 -19 -1 -8 3 -5 6 6 6 11 1 17 -2 13 -5z m-50 -10 c-3 -3 -12 -4
-19 -1 -8 3 -5 6 6 6 11 1 17 -2 13 -5z m900 0 c-3 -3 -12 -4 -19 -1 -8 3 -5
6 6 6 11 1 17 -2 13 -5z m-1137 -48 c0 -3 -4 -8 -10 -11 -5 -3 -10 -1 -10 4 0
6 5 11 10 11 6 0 10 -2 10 -4z m171 -143 c13 -16 12 -17 -3 -4 -10 7 -18 15
-18 17 0 8 8 3 21 -13z m327 10 c-10 -2 -26 -2 -35 0 -10 3 -2 5 17 5 19 0 27
-2 18 -5z m280 0 c-10 -2 -26 -2 -35 0 -10 3 -2 5 17 5 19 0 27 -2 18 -5z
m-355 -10 c-7 -2 -19 -2 -25 0 -7 3 -2 5 12 5 14 0 19 -2 13 -5z m420 0 c-7
-2 -19 -2 -25 0 -7 3 -2 5 12 5 14 0 19 -2 13 -5z m-742 -30 c13 -16 12 -17
-3 -4 -10 7 -18 15 -18 17 0 8 8 3 21 -13z m539 -132 c0 -65 -5 -132 -11 -148
-9 -27 -16 -31 -61 -37 l-50 -7 -128 133 c-115 120 -126 134 -106 141 41 14
201 35 279 36 l77 1 0 -119z m157 109 c140 -19 383 -81 383 -99 0 -3 -32 -23
-70 -44 -38 -20 -108 -67 -155 -102 l-86 -66 -79 13 c-66 10 -80 16 -89 36 -6
12 -11 79 -11 147 0 102 3 125 14 125 8 0 50 -5 93 -10z m524 -23 c-10 -9 -11
-8 -5 6 3 10 9 15 12 12 3 -3 0 -11 -7 -18z m-1911 -21 c0 -2 -8 -10 -17 -17
-16 -13 -17 -12 -4 4 13 16 21 21 21 13z m962 -179 l86 -94 -49 -18 c-28 -9
-76 -36 -107 -60 -48 -34 -62 -40 -81 -33 -48 17 -259 67 -359 84 l-103 18 53
53 c80 82 207 159 331 203 l51 18 45 -38 c25 -22 85 -81 133 -133z m1662 124
c-2 -3 -12 3 -22 13 -16 17 -16 18 5 5 12 -7 20 -15 17 -18z m-2684 5 c0 -2
-8 -10 -17 -17 -16 -13 -17 -12 -4 4 13 16 21 21 21 13z m2737 -33 c-4 -3 3
-18 15 -32 l23 -26 -27 24 c-24 21 -29 41 -11 41 4 0 3 -3 0 -7z m-813 -16
c-1 -5 -29 -75 -64 -158 l-63 -149 -36 22 c-20 12 -68 38 -108 59 l-72 38 42
34 c136 109 307 197 301 154z m-1984 0 c0 -2 -15 -16 -32 -33 l-33 -29 29 33
c28 30 36 37 36 29z m2720 -22 c13 -14 21 -25 18 -25 -2 0 -15 11 -28 25 -13
14 -21 25 -18 25 2 0 15 -11 28 -25z m-300 -650 c145 -352 270 -646 278 -652
20 -16 104 -17 120 -1 9 9 12 78 12 250 l0 238 522 -2 521 -3 53 -100 c202
-378 312 -780 330 -1197 l7 -158 -3591 0 -3592 0 0 735 0 735 458 0 458 0 135
-232 c152 -264 159 -274 182 -265 15 6 17 33 17 252 l0 245 225 0 225 0 0
-100 c0 -84 3 -102 17 -107 10 -4 23 2 35 18 56 72 105 124 141 150 l40 29
1052 0 c870 0 1054 2 1064 13 8 11 124 319 233 621 8 21 13 25 18 15 5 -8 83
-214 175 -459 92 -245 174 -452 181 -460 12 -12 16 -12 28 0 7 8 93 256 191
550 98 294 180 539 183 544 7 12 -5 40 282 -659z m-2560 630 c-13 -14 -26 -23
-28 -20 -4 4 38 44 47 45 3 0 -6 -11 -19 -25z m670 2 c0 -2 -12 -14 -27 -28
l-28 -24 24 28 c23 25 31 32 31 24z m2370 -62 c30 -30 52 -55 49 -55 -2 0 -29
25 -59 55 -30 30 -52 55 -49 55 2 0 29 -25 59 -55z m-3086 27 c3 -5 -1 -9 -9
-9 -8 0 -12 4 -9 9 3 4 7 8 9 8 2 0 6 -4 9 -8z m656 -25 c0 -2 -10 -12 -22
-23 l-23 -19 19 23 c18 21 26 27 26 19z m-618 -50 c-12 -13 -19 -27 -15 -30 3
-4 -2 -7 -12 -7 -16 0 -14 4 10 30 16 17 31 30 34 30 2 0 -5 -10 -17 -23z
m206 -14 c-16 -2 -40 -2 -55 0 -16 2 -3 4 27 4 30 0 43 -2 28 -4z m270 0 c-16
-2 -40 -2 -55 0 -16 2 -3 4 27 4 30 0 43 -2 28 -4z m2370 0 c-21 -2 -55 -2
-75 0 -21 2 -4 4 37 4 41 0 58 -2 38 -4z m383 -10 c13 -16 12 -17 -3 -4 -10 7
-18 15 -18 17 0 8 8 3 21 -13z m-656 -11 c-3 -3 -11 0 -18 7 -9 10 -8 11 6 5
10 -3 15 -9 12 -12z m-2755 5 c0 -2 -12 -14 -27 -28 l-28 -24 24 28 c23 25 31
32 31 24z m1626 -54 c-8 -21 -42 -114 -76 -208 -34 -93 -67 -182 -72 -197 -10
-27 -12 -28 -87 -28 -67 0 -80 3 -99 23 -30 32 -42 70 -42 133 0 131 125 257
298 298 92 23 93 22 78 -21z m243 21 c92 -23 291 -124 291 -148 0 -5 -27 -74
-61 -153 -64 -150 -72 -160 -130 -151 -23 3 -40 41 -173 401 -30 78 -31 77 73
51z m1615 -23 c-2 -3 -12 3 -22 13 -16 17 -16 18 5 5 12 -7 20 -15 17 -18z
m-2936 12 c-26 -2 -71 -2 -100 0 -29 2 -8 3 47 3 55 0 79 -1 53 -3z m-195 -10
c-13 -2 -33 -2 -45 0 -13 2 -3 4 22 4 25 0 35 -2 23 -4z m330 0 c-13 -2 -33
-2 -45 0 -13 2 -3 4 22 4 25 0 35 -2 23 -4z m2360 0 c-29 -2 -77 -2 -105 0
-29 2 -6 3 52 3 58 0 81 -1 53 -3z m-2143 -18 c106 -18 332 -74 343 -84 4 -5
-1 -23 -12 -42 -10 -19 -24 -60 -31 -91 -12 -60 -4 -112 26 -170 l15 -28 -246
0 -246 0 -20 48 c-42 95 -36 238 12 340 24 49 29 50 159 27z m-743 -1 c-3 -3
-12 -4 -19 -1 -8 3 -5 6 6 6 11 1 17 -2 13 -5z m3100 0 c-3 -3 -12 -4 -19 -1
-8 3 -5 6 6 6 11 1 17 -2 13 -5z m-3147 -8 c0 -2 -9 -6 -20 -9 -11 -3 -18 -1
-14 4 5 9 34 13 34 5z m-340 -141 c-24 -25 -46 -45 -49 -45 -3 0 15 20 39 45
24 25 46 45 49 45 3 0 -15 -20 -39 -45z m877 -7 c-3 -7 -5 -2 -5 12 0 14 2 19
5 13 2 -7 2 -19 0 -25z m3058 -18 c10 -11 16 -20 13 -20 -3 0 -13 9 -23 20
-10 11 -16 20 -13 20 3 0 13 -9 23 -20z m-3068 -47 c-3 -10 -5 -4 -5 12 0 17
2 24 5 18 2 -7 2 -21 0 -30z m-947 -17 c0 -2 -8 -10 -17 -17 -16 -13 -17 -12
-4 4 13 16 21 21 21 13z m957 -48 c-3 -7 -5 -2 -5 12 0 14 2 19 5 13 2 -7 2
-19 0 -25z m-1007 -12 c0 -2 -8 -10 -17 -17 -16 -13 -17 -12 -4 4 13 16 21 21
21 13z m4215 -36 c10 -11 16 -20 13 -20 -3 0 -13 9 -23 20 -10 11 -16 20 -13
20 3 0 13 -9 23 -20z m-4008 -72 c-3 -8 -6 -5 -6 6 -1 11 2 17 5 13 3 -3 4
-12 1 -19z m70 0 c-3 -8 -6 -5 -6 6 -1 11 2 17 5 13 3 -3 4 -12 1 -19z m3994
5 c13 -16 12 -17 -3 -4 -10 7 -18 15 -18 17 0 8 8 3 21 -13z m-936 -3 c3 -5 1
-10 -4 -10 -6 0 -11 5 -11 10 0 6 2 10 4 10 3 0 8 -4 11 -10z m1599 -1898 c8
-14 -31 -255 -64 -389 -269 -1109 -1191 -1956 -2321 -2133 -782 -123 -1580 89
-2209 586 -117 92 -371 349 -460 464 -269 348 -461 755 -545 1155 -23 109 -53
314 -47 320 9 9 5641 5 5646 -3z m-5749 -574 c7 -60 31 -184 46 -243 35 -136
45 -170 76 -265 81 -248 196 -494 322 -685 25 -38 53 -82 63 -97 l18 -28 -275
0 -275 0 0 685 c0 634 6 782 25 633z m1155 -1981 c30 -23 76 -58 103 -75 26
-18 47 -35 47 -37 0 -3 -65 -5 -145 -5 l-145 0 0 116 0 115 43 -35 c23 -20 67
-55 97 -79z"/>
<path d="M5315 5429 c-2 -8 -97 -277 -210 -599 -113 -322 -208 -592 -211 -600
-3 -8 -86 212 -185 490 -99 278 -184 508 -188 513 -4 4 -132 -370 -286 -830
-153 -461 -280 -844 -283 -850 -3 -10 28 -13 136 -13 l139 0 48 130 47 130
227 0 227 0 43 -122 c24 -68 47 -127 51 -131 4 -4 68 -6 142 -5 l136 3 -54
135 c-30 74 -54 141 -54 150 0 9 14 60 30 113 l31 97 251 -2 251 -3 78 -235
c43 -129 82 -241 86 -249 7 -10 39 -13 143 -12 74 1 136 3 137 5 2 2 -26 81
-63 177 -36 96 -77 202 -90 237 l-23 62 109 0 110 0 0 -239 0 -240 151 -3 c83
-2 153 -1 155 1 2 2 4 116 4 253 l0 248 150 0 c114 0 158 -4 180 -15 55 -29
82 -98 115 -305 17 -101 36 -157 59 -172 6 -4 68 -8 138 -8 l126 0 -19 49
c-10 27 -30 113 -44 191 -40 220 -83 310 -169 352 l-44 21 47 23 c187 94 239
317 109 468 -53 61 -140 118 -222 146 -58 19 -81 20 -391 18 l-330 -3 -3 -247
-2 -248 -168 0 -168 0 -43 113 c-172 444 -394 1013 -397 1016 -2 2 -6 -2 -9
-10z m104 -852 c46 -127 86 -238 88 -244 4 -10 -32 -13 -162 -13 -154 0 -167
1 -163 18 22 82 144 472 148 472 3 0 43 -105 89 -233z m1335 12 c21 -6 49 -22
62 -36 21 -23 24 -36 24 -104 0 -122 6 -119 -250 -119 l-210 0 0 135 0 135
168 0 c92 0 184 -5 206 -11z m-2130 -319 c47 -129 86 -238 86 -242 0 -4 -74
-8 -165 -8 -91 0 -165 2 -165 5 0 9 142 469 147 478 3 5 6 7 8 5 2 -2 42 -109
89 -238z"/>
<path d="M2375 4825 c-248 -54 -368 -197 -353 -417 12 -163 122 -243 478 -348
187 -55 248 -78 266 -101 31 -39 22 -131 -17 -170 -18 -18 -35 -19 -284 -19
l-265 0 0 -105 0 -105 281 0 c259 0 286 2 338 21 123 45 193 125 226 261 20
80 15 130 -19 203 -52 112 -175 188 -401 251 -232 64 -261 73 -296 97 -31 21
-34 28 -37 77 -4 74 3 97 38 115 25 13 105 15 565 15 l535 0 0 -530 0 -531
143 3 142 3 3 527 2 528 182 2 181 3 12 35 c7 19 27 72 44 118 l30 82 -867 -1
c-680 0 -880 -3 -927 -14z"/>
<path d="M1570 4433 l0 -398 -262 393 -262 393 -120 -3 -121 -3 -3 -627 -2
-628 125 0 125 0 2 420 3 420 259 -420 259 -420 139 0 138 0 -2 633 -3 632
-137 3 -138 3 0 -398z"/>
<path d="M307 4814 c-4 -4 -7 -290 -7 -636 l0 -629 133 3 132 3 0 630 0 630
-126 3 c-69 1 -128 -1 -132 -4z"/>
<path d="M3896 3054 c-9 -8 -16 -24 -16 -34 0 -11 -8 -24 -17 -29 -17 -10 -17
-12 0 -25 13 -10 17 -29 17 -90 0 -68 2 -77 18 -74 14 3 17 16 20 81 2 59 6
77 17 77 8 0 15 7 15 15 0 8 -7 15 -15 15 -8 0 -15 9 -15 20 0 13 7 20 19 20
19 0 35 23 24 34 -12 12 -52 6 -67 -10z"/>
<path d="M4132 3055 c-23 -10 -39 -28 -53 -60 -28 -62 -19 -117 26 -162 28
-28 40 -33 80 -33 40 0 52 5 81 34 19 19 34 38 34 44 0 9 -31 26 -34 20 -36
-61 -64 -76 -111 -58 -54 21 -69 126 -24 171 28 28 83 25 107 -6 21 -26 37
-32 47 -15 10 15 -13 49 -45 65 -36 19 -65 19 -108 0z"/>
<path d="M1992 2954 c3 -102 4 -107 31 -130 20 -17 40 -24 72 -24 32 0 52 7
72 24 27 23 28 28 31 130 4 102 3 106 -17 106 -20 0 -21 -5 -21 -91 0 -112 -8
-129 -60 -129 -61 0 -70 16 -70 126 0 89 -1 94 -21 94 -20 0 -21 -4 -17 -106z"/>
<path d="M2452 3043 c2 -10 10 -18 18 -18 8 0 16 8 18 18 2 12 -3 17 -18 17
-15 0 -20 -5 -18 -17z"/>
<path d="M3212 3043 c2 -10 10 -18 18 -18 8 0 16 8 18 18 2 12 -3 17 -18 17
-15 0 -20 -5 -18 -17z"/>
<path d="M3313 3049 c-7 -7 -13 -21 -13 -31 0 -9 -8 -22 -17 -27 -17 -10 -17
-12 -1 -24 13 -10 18 -32 20 -88 l3 -74 33 -3 c36 -4 47 22 12 31 -17 4 -20
14 -20 65 0 51 3 60 20 65 25 7 26 23 1 30 -13 3 -21 15 -23 37 -2 25 -5 29
-15 19z"/>
<path d="M4532 2933 c3 -112 5 -128 21 -131 15 -3 17 8 17 127 0 125 -1 131
-20 131 -20 0 -20 -5 -18 -127z"/>
<path d="M5250 3018 c0 -33 -3 -39 -12 -30 -33 33 -92 0 -108 -58 -18 -68 21
-130 82 -130 13 0 29 5 36 12 9 9 12 9 12 0 0 -7 7 -12 15 -12 13 0 15 21 15
130 0 123 -1 130 -20 130 -17 0 -20 -7 -20 -42z m-20 -58 c27 -15 36 -74 16
-105 -20 -31 -50 -32 -70 -3 -22 31 -20 74 4 98 23 23 25 23 50 10z"/>
<path d="M5640 2929 l0 -131 81 4 c70 3 83 6 100 27 24 29 24 62 0 92 -17 21
-17 25 -2 50 15 26 14 30 -5 56 -19 26 -27 28 -98 31 l-76 3 0 -132z m140 86
c6 -8 9 -23 5 -35 -5 -17 -15 -20 -56 -20 l-49 0 0 35 c0 35 0 35 44 35 26 0
48 -6 56 -15z m14 -117 c19 -31 -4 -53 -63 -56 l-51 -3 0 41 0 41 51 -3 c36
-2 55 -8 63 -20z"/>
<path d="M6280 2930 c0 -123 1 -130 20 -130 19 0 20 7 20 130 0 123 -1 130
-20 130 -19 0 -20 -7 -20 -130z"/>
<path d="M6480 3020 c0 -38 -1 -39 -25 -28 -32 14 -78 -4 -94 -38 -20 -44 -14
-102 13 -129 21 -21 33 -24 80 -23 l56 2 0 128 c0 107 -2 128 -15 128 -11 0
-15 -11 -15 -40z m-20 -70 c37 -37 20 -120 -24 -120 -40 0 -63 51 -45 98 17
45 39 52 69 22z"/>
<path d="M2312 2991 c-7 -4 -24 -6 -38 -3 l-24 4 0 -97 c0 -86 2 -96 18 -93
14 3 18 16 20 75 2 59 6 75 22 83 42 23 60 -6 60 -102 0 -45 3 -58 15 -58 12
0 15 16 15 84 0 76 -2 86 -22 100 -25 18 -46 20 -66 7z"/>
<path d="M2729 2971 c-24 -24 -29 -38 -29 -76 0 -61 32 -95 90 -95 55 0 105
48 65 64 -9 3 -19 -3 -25 -14 -20 -38 -90 -20 -90 22 0 16 9 18 71 18 77 0 72
-6 53 60 -6 23 -52 50 -84 50 -12 0 -35 -13 -51 -29z m75 -7 c9 -4 21 -15 27
-25 9 -17 6 -19 -41 -19 -53 0 -68 18 -32 39 20 12 25 13 46 5z"/>
<path d="M2961 2991 c-7 -5 -22 -6 -32 -4 -18 5 -19 -1 -19 -91 0 -89 1 -96
20 -96 18 0 20 7 20 64 0 81 6 96 37 96 18 0 24 5 21 17 -4 20 -27 27 -47 14z"/>
<path d="M3052 2988 c-27 -13 -39 -52 -22 -73 6 -7 34 -21 61 -30 36 -12 49
-22 47 -33 -5 -27 -58 -28 -78 -1 -10 12 -22 19 -29 15 -32 -20 15 -66 68 -66
31 0 44 6 60 26 12 15 21 31 21 35 0 19 -41 48 -79 59 -44 12 -54 34 -20 45
13 4 27 1 38 -9 19 -17 51 -22 51 -7 0 16 -52 51 -74 50 -11 0 -31 -5 -44 -11z"/>
<path d="M3698 2980 c-47 -36 -50 -119 -6 -160 33 -31 83 -26 120 10 27 28 30
36 25 77 -6 54 -30 81 -78 89 -25 4 -41 1 -61 -16z m90 -38 c17 -22 15 -77 -4
-96 -21 -22 -61 -20 -74 3 -5 11 -10 35 -10 55 0 57 53 80 88 38z"/>
<path d="M4370 2987 c-80 -40 -52 -187 36 -187 46 0 63 9 79 41 25 47 19 96
-14 130 -32 31 -61 36 -101 16z m88 -80 c4 -47 -12 -77 -43 -77 -33 0 -55 25
-55 64 0 84 91 96 98 13z"/>
<path d="M4650 2987 c-84 -42 -54 -187 38 -187 59 1 92 38 92 105 0 27 -8 44
-29 66 -32 31 -61 36 -101 16z m88 -80 c4 -47 -12 -77 -43 -77 -33 0 -55 25
-55 64 0 84 91 96 98 13z"/>
<path d="M4866 2991 c-3 -5 -15 -7 -26 -4 -19 5 -20 0 -20 -91 0 -79 3 -96 15
-96 11 0 15 13 15 54 0 69 14 106 39 106 25 0 38 20 20 31 -18 11 -36 11 -43
0z"/>
<path d="M4953 2976 c-22 -19 -25 -27 -16 -37 9 -9 18 -7 39 10 27 21 61 20
76 -2 11 -18 1 -24 -46 -31 -50 -8 -71 -22 -81 -53 -13 -46 63 -81 116 -53 13
7 19 7 19 0 0 -5 8 -10 18 -10 15 0 17 9 14 83 -3 68 -7 85 -24 100 -29 25
-81 22 -115 -7z m107 -94 c0 -4 -7 -18 -16 -30 -21 -30 -79 -28 -79 3 0 14 9
22 30 26 44 10 65 10 65 1z"/>
<path d="M5375 2988 c-34 -18 -45 -40 -45 -90 0 -62 31 -98 85 -98 54 0 85 36
85 99 0 43 -4 53 -31 75 -33 28 -62 32 -94 14z m85 -63 c17 -44 -7 -95 -46
-95 -34 0 -58 41 -50 85 11 59 75 66 96 10z"/>
<path d="M5915 2988 c-34 -19 -44 -41 -45 -91 0 -61 31 -97 85 -97 54 0 85 36
85 97 -1 51 -12 73 -47 91 -27 15 -52 15 -78 0z m85 -57 c21 -52 -7 -106 -52
-99 -34 5 -52 50 -38 93 17 51 69 55 90 6z"/>
<path d="M6579 2971 c-24 -24 -29 -38 -29 -76 0 -61 32 -95 90 -95 55 0 105
48 65 64 -9 3 -19 -3 -25 -14 -20 -38 -90 -20 -90 22 0 16 9 18 71 18 77 0 72
-6 53 60 -6 23 -52 50 -84 50 -12 0 -35 -13 -51 -29z m75 -7 c9 -4 21 -15 27
-25 9 -17 6 -19 -41 -19 -53 0 -68 18 -32 39 20 12 25 13 46 5z"/>
<path d="M6816 2992 c-3 -5 -17 -7 -31 -4 l-25 4 0 -96 c0 -89 1 -96 20 -96
18 0 20 7 20 64 0 81 6 96 37 96 18 0 24 5 21 17 -4 19 -33 30 -42 15z"/>
<path d="M2450 2895 c0 -88 1 -95 20 -95 19 0 20 7 20 95 0 88 -1 95 -20 95
-19 0 -20 -7 -20 -95z"/>
<path d="M2510 2988 c0 -2 15 -43 33 -93 26 -72 37 -91 54 -93 18 -3 25 8 48
80 16 46 30 89 33 96 2 7 -4 12 -16 12 -15 0 -24 -12 -37 -52 -27 -83 -29 -84
-54 -13 -18 49 -28 65 -42 65 -10 0 -19 -1 -19 -2z"/>
<path d="M3210 2895 c0 -88 1 -95 20 -95 19 0 20 7 20 95 0 88 -1 95 -20 95
-19 0 -20 -7 -20 -95z"/>
<path d="M3380 2982 c0 -4 14 -43 30 -87 35 -88 35 -116 3 -130 -31 -13 -29
-35 2 -35 32 0 47 24 94 154 37 101 38 107 18 104 -15 -2 -26 -19 -42 -68
l-22 -65 -24 68 c-17 48 -29 67 -41 67 -10 0 -18 -3 -18 -8z"/>
<path d="M6080 2912 c0 -64 4 -82 18 -95 21 -19 54 -22 83 -7 13 7 19 7 19 0
0 -5 7 -10 15 -10 12 0 15 17 15 95 0 78 -3 95 -15 95 -12 0 -15 -13 -15 -58
0 -67 -20 -105 -53 -100 -20 3 -22 10 -25 81 -3 69 -5 77 -22 77 -18 0 -20 -7
-20 -78z"/>
<path d="M4000 2613 c-19 -8 -134 -95 -138 -105 -2 -4 -24 -17 -50 -29 -73
-35 -153 -88 -204 -137 -40 -39 -55 -46 -103 -53 -31 -4 -68 -16 -82 -26 -14
-10 -34 -23 -45 -29 -11 -7 -25 -17 -31 -23 -6 -6 -25 -11 -43 -11 -33 0 -37
3 -137 127 -23 29 -55 70 -72 92 -35 46 -62 61 -110 61 -38 0 -87 -36 -110
-79 -22 -43 -140 -156 -182 -175 -21 -10 -47 -21 -58 -26 -11 -5 -56 -18 -100
-29 -171 -42 -225 -59 -254 -81 -17 -12 -31 -25 -31 -30 0 -5 30 -59 68 -121
192 -316 503 -625 832 -824 340 -207 739 -348 1120 -396 144 -18 485 -23 611
-10 110 12 281 43 344 61 355 107 636 243 918 444 401 286 722 654 828 948 22
63 22 64 3 87 -42 51 -143 74 -213 50 -38 -13 -58 -1 -63 39 -3 24 -7 27 -38
25 -83 -5 -115 -16 -151 -52 -32 -32 -63 -59 -139 -120 -21 -17 -22 -20 -7
-21 10 0 31 15 48 32 16 18 29 29 29 24 0 -5 8 1 19 12 10 12 21 19 25 15 3
-3 6 -1 6 5 0 7 6 12 14 12 8 0 16 6 19 13 3 8 29 19 58 24 49 10 54 9 90 -17
33 -23 44 -26 83 -20 82 12 137 -24 106 -70 -9 -13 -12 -13 -24 2 -45 59 -248
14 -383 -84 -59 -43 -100 -49 -129 -17 -15 17 -16 23 -5 41 12 19 11 20 -11
15 -12 -4 -51 -13 -85 -21 -34 -7 -66 -17 -71 -20 -19 -12 -152 54 -197 98
-34 32 -58 46 -99 55 -33 7 -61 21 -74 36 -16 18 -32 25 -60 25 -32 0 -47 -9
-102 -60 -36 -33 -68 -60 -72 -60 -4 0 -31 -24 -62 -52 -30 -29 -78 -71 -106
-93 -28 -22 -56 -48 -61 -57 -12 -23 -46 -22 -84 3 -16 10 -46 26 -65 35 -19
9 -71 43 -114 75 -44 33 -89 59 -103 59 -27 0 -133 51 -181 87 -28 21 -41 25
-80 20 -32 -3 -51 -12 -61 -26 -19 -29 -31 -27 -79 18 -23 22 -71 53 -105 69
-35 17 -93 55 -129 86 -52 45 -71 69 -93 121 -23 52 -33 65 -51 65 -13 0 -26
-5 -30 -11 -3 -6 -20 -9 -38 -5 -17 3 -44 7 -61 10 -16 3 -37 2 -45 -1z m63
-68 c22 -11 34 -12 50 -3 17 8 22 8 25 -3 7 -20 92 -99 108 -99 7 0 25 -15 41
-34 16 -19 57 -47 96 -65 37 -17 67 -35 67 -39 0 -19 -25 -29 -60 -25 -35 5
-44 1 -91 -40 -39 -34 -56 -44 -65 -36 -14 11 -31 59 -36 99 -2 14 -11 34 -20
44 -10 11 -18 28 -18 38 0 10 -4 18 -10 18 -5 0 -10 6 -10 14 0 16 -51 39 -77
34 -27 -5 -31 -58 -4 -65 25 -6 27 -25 6 -43 -8 -7 -17 -28 -21 -49 -9 -49
-35 -91 -56 -91 -21 0 -21 3 -7 53 12 46 7 67 -28 101 -23 23 -25 30 -15 51 8
18 19 25 40 25 32 0 52 16 52 42 0 13 -8 18 -26 18 -30 0 -114 -47 -114 -64 0
-25 -71 -116 -91 -116 -13 0 -25 -11 -35 -35 -16 -38 -15 -38 -38 -29 -10 4
-16 18 -16 40 0 20 -6 37 -14 40 -24 9 -6 44 33 63 20 10 52 27 71 38 19 11
53 31 75 43 22 13 51 33 65 45 53 47 79 53 123 30z m-937 -220 c72 -73 99
-107 89 -111 -14 -6 -75 24 -75 37 0 4 -7 9 -14 12 -12 5 -14 -3 -9 -44 6 -54
-9 -67 -29 -24 -10 23 -37 32 -72 26 -5 -1 -15 0 -23 3 -11 5 -10 10 5 26 28
30 48 98 35 118 -14 24 -51 27 -74 6 -10 -9 -19 -13 -19 -8 0 10 61 63 73 64
5 0 55 -47 113 -105z m-176 -11 c0 -14 -23 -44 -33 -44 -15 0 -15 36 -1 51 18
20 34 17 34 -7z m2785 -44 c10 -11 37 -25 59 -31 62 -15 156 -62 156 -76 0 -7
-11 -13 -25 -13 -39 0 -89 -24 -113 -55 -17 -22 -25 -25 -36 -16 -7 6 -20 9
-29 5 -10 -3 -18 2 -22 16 -4 12 -10 19 -13 18 -4 -2 -23 -11 -42 -20 -36 -17
-56 -34 -88 -77 -28 -36 -46 -19 -38 38 3 25 2 52 -3 60 -17 26 124 171 165
171 6 0 19 -9 29 -20z m-975 -42 c47 -27 50 -38 11 -38 -15 0 -40 -9 -54 -21
-23 -17 -34 -19 -84 -12 -43 6 -59 13 -61 26 -2 11 6 20 25 27 15 6 39 17 53
25 35 20 65 19 110 -7z m-364 -38 c5 -5 20 -11 33 -13 28 -4 73 -45 65 -58 -3
-5 -18 -9 -34 -9 -16 0 -32 -4 -35 -10 -3 -5 -15 -10 -26 -10 -10 0 -19 5 -19
10 0 6 -11 10 -25 10 -33 0 -73 39 -54 51 8 5 21 9 30 9 9 0 22 7 29 15 15 18
22 19 36 5z m-1366 -73 c0 -24 -27 -57 -47 -57 -19 0 -17 65 3 85 20 19 44 4
44 -28z m194 18 c16 -24 15 -27 -6 -65 -14 -24 -29 -39 -38 -37 -17 3 -17 17
1 67 6 19 13 41 15 48 5 17 10 15 28 -13z m3050 -31 c8 -22 5 -25 -43 -31 -43
-6 -91 2 -91 16 0 8 68 28 106 30 12 0 25 -6 28 -15z m-364 -35 c0 -5 -7 -32
-16 -58 -15 -48 -16 -49 -79 -66 -35 -9 -72 -23 -82 -31 -30 -22 -63 -18 -63
9 0 41 15 53 51 40 26 -10 35 -9 55 4 13 8 24 19 24 24 0 5 18 27 40 49 38 38
70 52 70 29z m130 -65 c22 -9 52 -14 67 -11 36 7 53 -1 53 -25 0 -34 -19 -58
-48 -58 -20 0 -101 27 -140 46 -6 3 12 64 19 64 5 0 27 -7 49 -16z m-551 -43
c38 -37 40 -42 30 -71 -7 -19 -38 -53 -80 -87 -67 -53 -70 -55 -114 -49 -25 4
-45 10 -45 13 0 16 45 75 70 93 16 12 37 38 47 58 18 40 43 82 49 82 2 0 21
-18 43 -39z"/>
<path d="M5656 2195 c-15 -23 -15 -25 2 -34 13 -7 22 -7 29 0 6 6 19 12 29 14
11 2 20 4 21 4 2 1 -5 10 -14 21 -23 27 -47 25 -67 -5z"/>
<path d="M2 5100 c0 -14 2 -19 5 -12 2 6 2 18 0 25 -3 6 -5 1 -5 -13z"/>
</g>
</svg>
